<svg id="Ebene_1" data-name="Ebene 1" xmlns="http://www.w3.org/2000/svg" viewBox="0 0 141.73 141.73"><defs><style>.cls-1{fill:#fff;}</style></defs><path class="cls-1" d="M71.05,62.22a8.57,8.57,0,1,0,8.57,8.57A8.57,8.57,0,0,0,71.05,62.22Zm0,13.13a4.57,4.57,0,1,1,4.57-4.56A4.57,4.57,0,0,1,71.05,75.35Zm41-4.57c1.3-1.45,2.53-2.91,3.65-4.37,7.56-9.9,9.76-18.77,6.17-25a12,12,0,0,0-2.76-3.23,7.87,7.87,0,0,0,.13-1.38,8.56,8.56,0,0,0-16.6-2.93,61.23,61.23,0,0,0-11.08,1.36c-4.63-14.16-12-23.17-20.52-23.17s-15.88,9-20.51,23.16C36,32.19,24.47,34.09,20.22,41.44c-3.58,6.2-1.38,15.07,6.18,25,1.12,1.46,2.35,2.92,3.65,4.37-1.3,1.46-2.53,2.92-3.65,4.38-7.56,9.9-9.76,18.77-6.18,25A12.36,12.36,0,0,0,23,103.36a9,9,0,0,0-.12,1.38,8.56,8.56,0,0,0,16.6,3,63.2,63.2,0,0,0,11.08-1.38c4.63,14.16,12,23.17,20.51,23.17s15.89-9,20.52-23.17a59.94,59.94,0,0,0,12.32,1.41c8.57,0,15-2.48,18-7.59,3.59-6.2,1.39-15.07-6.17-25C114.59,73.7,113.36,72.24,112.06,70.78Zm-1.38-38.51a4.57,4.57,0,1,1-4.56,4.56A4.57,4.57,0,0,1,110.68,32.27Zm-8.49,5.6a8.55,8.55,0,0,0,15.24,4.22,7.68,7.68,0,0,1,1,1.35c2.68,4.65.54,12.13-5.89,20.54-1,1.3-2.07,2.59-3.22,3.88A109.81,109.81,0,0,0,95.92,56.44a109.86,109.86,0,0,0-3.19-17.31A60.19,60.19,0,0,1,102.19,37.87ZM96.37,61.79a101.39,101.39,0,0,1,10.21,9,102.59,102.59,0,0,1-10.21,9q.28-4.4.29-9T96.37,61.79Zm-4.89-8.44c-2.45-1.64-5-3.22-7.62-4.74S78.57,45.67,76,44.37A104.3,104.3,0,0,1,88.8,40.06,103.65,103.65,0,0,1,91.48,53.35ZM71.05,16.09c6.58,0,12.59,7.91,16.59,20.1a109,109,0,0,0-16.59,5.89,108.52,108.52,0,0,0-16.58-5.89C58.47,24,64.47,16.09,71.05,16.09Zm-17.74,24a102.76,102.76,0,0,1,12.85,4.32q-3.93,1.93-7.91,4.23c-2.62,1.52-5.17,3.1-7.62,4.74A103.65,103.65,0,0,1,53.31,40.06ZM29.58,64C23.15,55.57,21,48.09,23.69,43.44,25.89,39.63,31,37.81,38,37.81a56.52,56.52,0,0,1,11.43,1.32,109.86,109.86,0,0,0-3.19,17.31A109.81,109.81,0,0,0,32.8,67.86C31.65,66.57,30.57,65.28,29.58,64Zm16.16,15.8a101.47,101.47,0,0,1-10.21-9,100.3,100.3,0,0,1,10.21-9q-.29,4.4-.29,9T45.74,79.78ZM31.43,109.3A4.57,4.57,0,1,1,36,104.74,4.57,4.57,0,0,1,31.43,109.3Zm8.49-5.61a8.54,8.54,0,0,0-15.24-4.2,7.75,7.75,0,0,1-1-1.36C21,93.48,23.15,86,29.58,77.59c1-1.3,2.07-2.59,3.22-3.88A109.81,109.81,0,0,0,46.19,85.13a109,109,0,0,0,3.2,17.32A59.28,59.28,0,0,1,39.92,103.69ZM50.63,88.22c2.45,1.64,5,3.22,7.62,4.74s5.3,2.93,7.92,4.23a103,103,0,0,1-12.86,4.33A104.16,104.16,0,0,1,50.63,88.22Zm20.42,37.26c-6.58,0-12.58-7.91-16.58-20.1a108.52,108.52,0,0,0,16.58-5.89,109,109,0,0,0,16.59,5.89C83.64,117.57,77.63,125.48,71.05,125.48Zm17.75-24a103,103,0,0,1-12.86-4.33c2.62-1.3,5.27-2.7,7.92-4.23s5.17-3.1,7.62-4.74A104.16,104.16,0,0,1,88.8,101.52ZM92.09,83c-3.23,2.28-6.65,4.48-10.23,6.54s-7.23,3.94-10.81,5.59c-3.58-1.65-7.2-3.51-10.8-5.59S53.25,85.23,50,83c-.37-3.93-.57-8-.57-12.16s.2-8.24.57-12.17c3.23-2.28,6.65-4.48,10.23-6.55s7.22-3.93,10.8-5.57c3.58,1.64,7.2,3.49,10.81,5.57s7,4.27,10.23,6.55c.37,3.93.57,8,.57,12.17S92.46,79,92.09,83Zm26.33,15.18c-3.29,5.7-13.14,7-25.7,4.32a109,109,0,0,0,3.2-17.32,109.81,109.81,0,0,0,13.39-11.42c1.15,1.29,2.23,2.58,3.22,3.88C119,86,121.1,93.48,118.42,98.13Z"/></svg>