<svg id="Ebene_1" data-name="Ebene 1" xmlns="http://www.w3.org/2000/svg" viewBox="0 0 141.73 141.73"><defs><style>.cls-1{fill:#fff;}</style></defs><path class="cls-1" d="M126,69.75a55.67,55.67,0,1,0-79.21,50.43l-1.05,7.3H94.92l-1-7.3A55.72,55.72,0,0,0,126,69.75Zm-107.37,0a51.69,51.69,0,0,1,96.1-26.46L92.38,55.42a26.3,26.3,0,0,0-46.09,25L24,92.58A51.33,51.33,0,0,1,18.62,69.75Zm74.06,0a22.2,22.2,0,0,1-4.19,13L88,79.65H52.61l-.45,3.09a22.34,22.34,0,1,1,40.52-13ZM25.84,96.05,48.17,83.93A26.36,26.36,0,0,0,51.41,88l-4,28.07A52,52,0,0,1,25.84,96.05Zm24.45,27.47L56,83.6H84.61l5.75,39.92Zm43-7.47-4-28a26.23,26.23,0,0,0,5.05-29.11l22.33-12.12a51.62,51.62,0,0,1-23.34,69.28ZM81.56,33.38a2.81,2.81,0,1,0-2.8-2.8A2.8,2.8,0,0,0,81.56,33.38Zm-22.47,0a2.81,2.81,0,1,0-2.81-2.8A2.8,2.8,0,0,0,59.09,33.38Z"/></svg>