<svg id="Ebene_1" data-name="Ebene 1" xmlns="http://www.w3.org/2000/svg" viewBox="0 0 141.73 141.73"><defs><style>.cls-1{fill:#4e5759;}</style></defs><path class="cls-1" d="M90.48,22.32h0a4.39,4.39,0,0,0-5.38,3.1L77.15,55.09a22.66,22.66,0,0,1,4.29,1ZM64.4,57.22,40.64,16.08l-3.81,2.19L60.66,59.55A22.1,22.1,0,0,1,64.4,57.22Zm22.37,1.46,17.59-30.47a4.4,4.4,0,0,0-1.6-6h0L82.89,56.61A21.84,21.84,0,0,1,86.77,58.68ZM69.85,55.33,63.19,30.48,59,31.62l6.7,25A22,22,0,0,1,69.85,55.33ZM75.66,55V37.8H71.27V55.12a21.61,21.61,0,0,1,3-.23C74.76,54.89,75.21,54.93,75.66,55Zm37.9,35.39,1.17-4.24-18.38-5a22.33,22.33,0,0,1-1.17,4.24Zm-19-22.64,26.32-15.2-2.2-3.8L92.25,64A22.37,22.37,0,0,1,94.52,67.71Zm21.83-4.15L95.17,69.24a21.52,21.52,0,0,1,1.17,4.23l21.15-5.66Zm-62.63,4.9a22.16,22.16,0,0,1,2.12-3.85L44.19,57.89h0a4.4,4.4,0,0,0,1.61,6ZM74.3,91.07A13.79,13.79,0,1,0,61.66,71.76H17.4A4.38,4.38,0,0,0,13,76.15H64.83l.52-1.74c0-.08.05-.16.07-.24a9.4,9.4,0,1,1,8.48,12.5,9.67,9.67,0,0,1-8.7-7l-.37-1.25H13a4.39,4.39,0,0,0,4.39,4.4H61.66A13.9,13.9,0,0,0,74.3,91.07ZM88.05,59.64a21.76,21.76,0,0,1,3.19,3l10.5-10.51-3.11-3.1ZM88,95l21.7,21.71,3.1-3.11L91.19,92A22.73,22.73,0,0,1,88,95ZM77.13,99.47l4.81,18,4.24-1.14L81.41,98.5A21.64,21.64,0,0,1,77.13,99.47ZM82.85,98,101,129.46h0a4.4,4.4,0,0,0,1.61-6L86.73,95.9A22.19,22.19,0,0,1,82.85,98Zm9.35-7.29,30.56,17.65,2.2-3.81L94.48,86.92A22,22,0,0,1,92.2,90.68ZM59.63,60.39,37.18,37.94a4.38,4.38,0,0,0-6.21,0h0L56.61,63.58A22.23,22.23,0,0,1,59.63,60.39Zm37,15.44c0,.48.08,1,.08,1.45a21.87,21.87,0,0,1-.22,2.94h27.09A4.4,4.4,0,0,0,128,75.83H96.61ZM59.68,94.22a23.36,23.36,0,0,1-3-3.18l-9.74,9.74a4.4,4.4,0,0,0,0,6.21h0Zm-5.93-8L33.42,97.91l2.19,3.81L55.89,90A22.46,22.46,0,0,1,53.75,86.17ZM71.27,99.44v12.38h4.39V99.6c-.45,0-.9.07-1.36.07A21.61,21.61,0,0,1,71.27,99.44ZM60.7,95,46.44,119.75l3.8,2.2,14.2-24.59A22,22,0,0,1,60.7,95Zm-1,25.24,4.25,1.14,5.94-22.19a22,22,0,0,1-4.2-1.29Z"/></svg>