<svg id="Ebene_1" data-name="Ebene 1" xmlns="http://www.w3.org/2000/svg" viewBox="0 0 100 29.48"><defs><style>.cls-1{fill:#4e5859;}.cls-2{fill:#a0cb83;}.cls-3{fill:#5e96ad;}.cls-4{fill:#f2e75e;}.cls-5{fill:#006373;}</style></defs><path class="cls-1" d="M16.74,17.05,23,29.46H16.48L11.16,18.39H6V29.46H0V.05H12.28C18.21.05,22,2.69,22,8.31V9.74C22,13.59,20,16.1,16.74,17.05ZM6,13.68h6c2.08,0,4-1.13,4-3.38V8.53c0-2.16-1.68-3.37-4.11-3.37H6Z"/><path class="cls-1" d="M49.21,0h3.42V29.41H49.21V16.69h-16V29.41H29.84V0h3.42V13.62h16Z"/><path class="cls-2" d="M76.24,29.48H70.3V.08h5.94Z"/><path class="cls-3" d="M88.12,29.48H82.18V.08h5.94Z"/><path class="cls-4" d="M64.36,29.48H58.43V.08h5.93Z"/><path class="cls-5" d="M100,29.48H94.06V.08H100Z"/></svg>