<svg id="Ebene_1" data-name="Ebene 1" xmlns="http://www.w3.org/2000/svg" viewBox="0 0 251.28 26.23"><defs><style>.cls-1{fill:#4e5859;}.cls-2{fill:#a0cb83;}.cls-3{fill:#5e96ad;}.cls-4{fill:#f2e75e;}.cls-5{fill:#006373;}.cls-6{fill:#71797a;}</style></defs><path class="cls-1" d="M5.67,5.92l2.1,4.2H5.58L3.78,6.37H2v3.75H0V.16H4.16c2,0,3.29.9,3.29,2.8v.48A2.39,2.39,0,0,1,5.67,5.92ZM2,4.78h2c.7,0,1.35-.38,1.35-1.15V3c0-.73-.57-1.14-1.39-1.14H2Z"/><path class="cls-1" d="M16.25.08l3.27,10H17.29l-.66-2.28H13.54l-.67,2.28H10.65L14,.08Zm0,6.16L15.11,2.36,13.92,6.24Z"/><path class="cls-1" d="M26.75.16c2.31,0,4,1.12,4,3.49v3c0,2.39-1.83,3.47-4.1,3.47H23.11V.16ZM28.7,3.81a1.79,1.79,0,0,0-1.95-1.92H25.11V8.41h1.51A1.84,1.84,0,0,0,28.7,6.5Z"/><path class="cls-1" d="M35.07.16h2v10h-2Z"/><path class="cls-1" d="M49.59,3.27V7c0,2.14-1.64,3.27-4,3.27h-.22c-2.36,0-4-1.12-4-3.27V3.27c0-2,1.7-3.25,4-3.25h.24C47.86,0,49.59,1.25,49.59,3.27Zm-2,.16a1.7,1.7,0,0,0-1.93-1.68h-.24c-1.13,0-1.92.61-1.92,1.67V6.87c0,1.14.75,1.68,1.94,1.68h.22c1.17,0,1.93-.55,1.93-1.68Z"/><path class="cls-1" d="M55.76.16V8.41H60.4v1.71H53.72V.16Z"/><path class="cls-1" d="M71.86,3.27V7c0,2.14-1.64,3.27-4,3.27h-.22c-2.36,0-4-1.12-4-3.27V3.27c0-2,1.7-3.25,4-3.25h.24C70.14,0,71.86,1.25,71.86,3.27Zm-2,.16A1.7,1.7,0,0,0,67.9,1.75h-.24c-1.13,0-1.92.61-1.92,1.67V6.87c0,1.14.75,1.68,1.94,1.68h.22c1.17,0,1.93-.55,1.93-1.68Z"/><path class="cls-1" d="M80,4.51h3.65v4.6a6.26,6.26,0,0,1-3.77,1.16c-2.31,0-4.1-1.13-4.1-3.27V3.3C75.8,1.18,77.65,0,79.93,0a6.17,6.17,0,0,1,3.41,1l-.71,1.49A4.64,4.64,0,0,0,80,1.75c-1.21,0-2.18.58-2.18,1.69V6.87c0,1.14.9,1.68,2.05,1.68a3.91,3.91,0,0,0,1.72-.33V6.11H80Z"/><path class="cls-1" d="M88,.16h2v10H88Z"/><path class="cls-1" d="M96.55,5.89V8.41h4.53v1.71H94.52V.16h6.23V1.89h-4.2V4.23H99.9V5.89Z"/><path class="cls-1" d="M115.67.15h1.16v10h-1.16V5.8h-5.4v4.3h-1.16V.15h1.16V4.76h5.4Z"/><path class="cls-1" d="M121.35,5.53V9.06h4.86v1h-6V.15h5.66V1.2h-4.51V4.51h3.75v1Z"/><path class="cls-1" d="M129.29.15h1.16v10h-1.16Z"/><path class="cls-1" d="M140.65.15h1.1v10h-1.19l-5.4-8.2v8.2h-1.1V.15h1.22l5.37,8.18Z"/><path class="cls-1" d="M149.92,5.65l2.31,4.45H151l-2.14-4.2h-2.55v4.2h-1.15V.15H149c1.85,0,3,1,3,2.59v.55A2.29,2.29,0,0,1,149.92,5.65Zm-3.65-.73H149c1,0,1.77-.54,1.77-1.55v-.6c0-.94-.71-1.57-1.89-1.57h-2.62Z"/><path class="cls-1" d="M155,.15h1.15v10H155Z"/><path class="cls-1" d="M160.57,3.28V7c0,1.51,1.08,2.24,2.6,2.24a4.2,4.2,0,0,0,2.59-.73l.52.83a4.7,4.7,0,0,1-3.18.94c-2.14,0-3.71-1.11-3.71-3.22V3.24c0-2,1.66-3.24,3.69-3.24a4.43,4.43,0,0,1,3.22,1.11l-.57.85a3.78,3.78,0,0,0-2.59-.91A2.32,2.32,0,0,0,160.57,3.28Z"/><path class="cls-1" d="M175.47.15h1.16v10h-1.16V5.8h-5.4v4.3h-1.16V.15h1.16V4.76h5.4Z"/><path class="cls-1" d="M186.39,7.55c0,1.7-1.36,2.67-3.28,2.67a4.45,4.45,0,0,1-3.63-1.63l.68-.73a3.56,3.56,0,0,0,2.94,1.33c1.27,0,2.15-.57,2.15-1.61s-.63-1.5-2.37-2c-1.9-.57-3.09-1.34-3.09-2.91,0-1.77,1.44-2.64,3.27-2.64a4.38,4.38,0,0,1,3.3,1.34l-.63.77a3.6,3.6,0,0,0-2.66-1.07c-1.23,0-2.14.55-2.14,1.57s.85,1.52,2.51,2C185.41,5.23,186.39,6,186.39,7.55Z"/><path class="cls-1" d="M193.26,0l3.53,10.07h-1.26l-1-3h-3.81l-1,3H188.4L192,0Zm1,6.07-1.61-4.61L191,6.1Z"/><path class="cls-1" d="M200.44.15V9.06h5.13v1h-6.29V.15Z"/><path class="cls-1" d="M209,.15V9.06h5.14v1h-6.3V.15Z"/><path class="cls-1" d="M217.48,5.53V9.06h4.86v1h-6V.15H222V1.2h-4.51V4.51h3.75v1Z"/><path class="cls-1" d="M226.32,5.53V9.06h4.86v1h-6V.15h5.66V1.2h-4.51V4.51h3.75v1Z"/><path class="cls-2" d="M243.24,10.12h-2V.17h2Z"/><path class="cls-3" d="M247.26,10.12h-2V.17h2Z"/><path class="cls-4" d="M239.22,10.12h-2V.17h2Z"/><path class="cls-5" d="M251.28,10.12h-2V.17h2Z"/><path class="cls-6" d="M3.62,20.4l1.75,3.36h-1L2.79,20.59H.87v3.17H0V16.25H2.91c1.4,0,2.25.73,2.25,2v.41A1.73,1.73,0,0,1,3.62,20.4ZM.87,19.85H2.94c.73,0,1.33-.41,1.33-1.17v-.45c0-.71-.54-1.18-1.42-1.18h-2Z"/><path class="cls-6" d="M10.88,19.83v3.93h-.77l-.06-.64a2.06,2.06,0,0,1-1.76.69c-1.23,0-2-.55-2-1.54V21L10,20.46v-.62c0-.69-.46-1-1.29-1a4.67,4.67,0,0,0-1.86.46l-.28-.67A5.24,5.24,0,0,1,8.79,18C10.07,18,10.88,18.66,10.88,19.83ZM10,21.09l-2.79.44v.68c0,.61.5.9,1.27.9s1.52-.38,1.52-1Z"/><path class="cls-6" d="M16.29,16.14h.87v7.62h-.77l-.1-.74a2.12,2.12,0,0,1-1.81.84,2,2,0,0,1-2.19-2V20.05a2,2,0,0,1,2.19-2,2.17,2.17,0,0,1,1.81.81Zm0,3.83c0-.83-.77-1.2-1.63-1.2a1.32,1.32,0,0,0-1.49,1.28v1.78c0,.85.61,1.29,1.51,1.29s1.61-.39,1.61-1.19Z"/><path class="cls-6" d="M19,16.14h.95V17H19Zm0,2h.88v5.63H19Z"/><path class="cls-6" d="M26.42,20v1.88a2.19,2.19,0,0,1-2.43,2,2.2,2.2,0,0,1-2.45-2V20c0-1.21,1.13-2,2.45-2S26.42,18.79,26.42,20Zm-.88.05A1.39,1.39,0,0,0,24,18.81c-.79,0-1.58.47-1.58,1.23v1.79c0,.78.76,1.24,1.58,1.24a1.4,1.4,0,0,0,1.55-1.24Z"/><path class="cls-6" d="M28.07,16.14H29v7.62h-.88Z"/><path class="cls-6" d="M35.48,20v1.88a2.19,2.19,0,0,1-2.43,2,2.2,2.2,0,0,1-2.45-2V20c0-1.21,1.12-2,2.45-2S35.48,18.79,35.48,20Zm-.89.05a1.39,1.39,0,0,0-1.54-1.23c-.8,0-1.58.47-1.58,1.23v1.79c0,.78.76,1.24,1.58,1.24a1.39,1.39,0,0,0,1.54-1.24Z"/><path class="cls-6" d="M38.31,22a.64.64,0,0,0-.41.55c0,.37.39.55.75.62l3.12.49v1.09c0,1.06-1.12,1.51-2.25,1.51h-.61c-1.19,0-2.25-.4-2.25-1.45a1.27,1.27,0,0,1,1.05-1.24,1,1,0,0,1-.64-.9,1.07,1.07,0,0,1,.65-.91,1.63,1.63,0,0,1-.8-1.47v-.37c0-1.23,1-1.86,2.31-1.86a3,3,0,0,1,1.29.26l1.4-.43.22.62-1,.28a1.65,1.65,0,0,1,.41,1.11v.42c0,1.24-1,1.8-2.25,1.8A3.45,3.45,0,0,1,38.31,22Zm2.58,2.72v-.52l-2.32-.35c-.52.05-1.06.28-1.06.89s.73.8,1.43.8h.59C40.22,25.51,40.82,25.32,40.89,24.69ZM37.8,20.34c0,.68.58,1.07,1.48,1.07.74,0,1.39-.29,1.39-1.07v-.45c0-.75-.72-1.09-1.44-1.09s-1.43.35-1.43,1.09Z"/><path class="cls-6" d="M43.34,16.14h.95V17h-.95Zm0,2h.88v5.63h-.88Z"/><path class="cls-6" d="M50.2,22.64l.31.61a3.43,3.43,0,0,1-2.08.57c-1.29,0-2.52-.65-2.52-1.94v-2A2.19,2.19,0,0,1,48.3,18a2.1,2.1,0,0,1,2.32,1.88v1.18H46.78v.76c0,.83.81,1.22,1.69,1.22A3.13,3.13,0,0,0,50.2,22.64Zm-3.42-2.72v.5h3v-.5c0-.68-.68-1.15-1.48-1.15S46.79,19.25,46.78,19.92Z"/><path class="cls-6" d="M52.66,22.89v.28a2.47,2.47,0,0,1-.69,2l-.48-.28a2.07,2.07,0,0,0,.38-1.33v-.63Z"/><path class="cls-6" d="M61.72,16.25h.83v7.51h-.89l-4.08-6.18v6.18h-.83V16.25h.92l4,6.17Z"/><path class="cls-6" d="M68.36,18.13h.88v3.76c0,1.26-1,2-2.42,2s-2.41-.72-2.41-2V18.13h.87v3.72c0,.8.65,1.24,1.54,1.24s1.54-.45,1.54-1.24Z"/><path class="cls-6" d="M73,20.69l2.57,3.07h-1l-2.2-2.63h-.5v2.63h-.88V16.14h.88v4.2h.42l2.09-2.21h1Z"/><path class="cls-6" d="M76.59,16.14h.89v7.62h-.89Z"/><path class="cls-6" d="M83.42,22.64l.31.61a3.48,3.48,0,0,1-2.09.57c-1.28,0-2.52-.65-2.52-1.94v-2A2.2,2.2,0,0,1,81.52,18a2.1,2.1,0,0,1,2.32,1.88v1.18H80v.76c0,.83.8,1.22,1.68,1.22A3.17,3.17,0,0,0,83.42,22.64ZM80,19.92v.5h3v-.5a1.33,1.33,0,0,0-1.48-1.15C80.74,18.77,80,19.25,80,19.92Z"/><path class="cls-6" d="M89.58,19.83v3.93h-.77l-.06-.64a2,2,0,0,1-1.75.69c-1.24,0-2-.55-2-1.54V21l3.69-.56v-.62c0-.69-.45-1-1.28-1a4.72,4.72,0,0,0-1.87.46l-.27-.67A5.16,5.16,0,0,1,87.5,18C88.78,18,89.58,18.66,89.58,19.83Zm-.89,1.26-2.8.44v.68c0,.61.5.9,1.27.9s1.53-.38,1.53-1Z"/><path class="cls-6" d="M94.24,18.09l-.12.88a3.06,3.06,0,0,0-.63-.06,1.5,1.5,0,0,0-1.33,1.6v3.25h-.9V18.13H92l.09,1A1.64,1.64,0,0,1,93.59,18,2.76,2.76,0,0,1,94.24,18.09Z"/><path class="cls-6" d="M103.46,19.79v4h-.87V20a1.08,1.08,0,0,0-1.17-1.16c-.9,0-1.62.5-1.62,1.31v3.65h-.88V19.88a1,1,0,0,0-1.19-1.09,1.59,1.59,0,0,0-1.58,1.38v3.59h-.89V18.13H96l0,.95a2.22,2.22,0,0,1,1.87-1,1.58,1.58,0,0,1,1.71,1,2.23,2.23,0,0,1,2-1A1.64,1.64,0,0,1,103.46,19.79Z"/><path class="cls-6" d="M109.19,22.64l.31.61a3.44,3.44,0,0,1-2.09.57c-1.28,0-2.52-.65-2.52-1.94v-2a2.2,2.2,0,0,1,2.4-1.88,2.1,2.1,0,0,1,2.32,1.88v1.18h-3.84v.76c0,.83.8,1.22,1.69,1.22A3.16,3.16,0,0,0,109.19,22.64Zm-3.42-2.72v.5h3v-.5c0-.68-.68-1.15-1.48-1.15S105.78,19.25,105.77,19.92Z"/><path class="cls-6" d="M114.81,16.14h.87v7.62h-.77l-.1-.74a2.11,2.11,0,0,1-1.81.84,1.94,1.94,0,0,1-2.18-2V20.05A2,2,0,0,1,113,18a2.17,2.17,0,0,1,1.81.81Zm0,3.83c0-.83-.77-1.2-1.63-1.2a1.32,1.32,0,0,0-1.49,1.28v1.78c0,.85.62,1.29,1.51,1.29s1.61-.39,1.61-1.19Z"/><path class="cls-6" d="M117.5,16.14h1V17h-1Zm0,2h.89v5.63h-.89Z"/><path class="cls-6" d="M124.11,18.13v.47L121,23h3.28v.74H120v-.54l3.09-4.39h-3v-.7Z"/><path class="cls-6" d="M125.84,16.14h1V17h-1Zm0,2h.89v5.63h-.89Z"/><path class="cls-6" d="M133.55,20v3.79h-.89V20.05a1.18,1.18,0,0,0-1.35-1.25c-.82,0-1.77.63-1.77,1.4v3.56h-.89V18.13h.75l.06,1.05a2.35,2.35,0,0,1,2-1.15A1.81,1.81,0,0,1,133.55,20Z"/><path class="cls-6" d="M138.24,17.48c0-.8.8-1.35,1.78-1.35,1.2,0,1.91.55,1.91,1.51s-.66,1.43-1.39,2h0l1.83,1.85,1.18-1.19.6.53-1.22,1.23,1.35,1.35-.61.52-1.29-1.31a3.65,3.65,0,0,1-2.67,1.25c-1.45,0-2.36-.61-2.36-1.88,0-.94.94-1.62,1.95-2.37l.08-.06-1.13-1.14Zm3.57,4.57-1.9-1.94-.1.08c-.83.63-1.58,1.12-1.58,1.79s.33,1.12,1.44,1.12A3.16,3.16,0,0,0,141.81,22.05Zm-2.76-3.9,1,1c.57-.43,1.1-.88,1.1-1.46s-.37-.79-1.09-.79-1,.31-1,.69Z"/><path class="cls-6" d="M152.93,21.84c0,1.28-1,2-2.47,2a3.35,3.35,0,0,1-2.74-1.23l.51-.55a2.7,2.7,0,0,0,2.22,1c1,0,1.62-.43,1.62-1.21s-.47-1.14-1.79-1.52-2.33-1-2.33-2.2c0-1.34,1.08-2,2.46-2a3.33,3.33,0,0,1,2.5,1l-.48.58a2.68,2.68,0,0,0-2-.8c-.92,0-1.61.4-1.61,1.18s.64,1.15,1.89,1.52C152.19,20.08,152.93,20.66,152.93,21.84Z"/><path class="cls-6" d="M157.53,22.83l.2.7a3.68,3.68,0,0,1-1.48.27c-1,0-1.55-.45-1.55-1.45V18.79h-.84v-.66h.84V16.68h.87v1.45h1.66v.66h-1.66v3.44c0,.55.32.79.86.79A2.84,2.84,0,0,0,157.53,22.83Z"/><path class="cls-6" d="M161.78,18.09l-.12.88a3.13,3.13,0,0,0-.63-.06,1.5,1.5,0,0,0-1.34,1.6v3.25h-.89V18.13h.75l.09,1A1.64,1.64,0,0,1,161.13,18,2.76,2.76,0,0,1,161.78,18.09Z"/><path class="cls-6" d="M167.1,19.83v3.93h-.77l-.05-.64a2.06,2.06,0,0,1-1.76.69c-1.24,0-2-.55-2-1.54V21l3.69-.56v-.62c0-.69-.45-1-1.28-1a4.72,4.72,0,0,0-1.87.46l-.27-.67A5.16,5.16,0,0,1,165,18C166.3,18,167.1,18.66,167.1,19.83Zm-.89,1.26-2.79.44v.68c0,.61.49.9,1.27.9s1.52-.38,1.52-1Z"/><path class="cls-6" d="M173.63,20v3.78h-.87V20a1.16,1.16,0,0,0-1.31-1.21c-.89,0-1.81.62-1.81,1.39v3.56h-.89V16.14h.89v3a2.29,2.29,0,0,1,2-1.12A1.77,1.77,0,0,1,173.63,20Z"/><path class="cls-6" d="M175.46,16.14h.88v7.62h-.88Z"/><path class="cls-6" d="M182.28,22.64l.31.61a3.44,3.44,0,0,1-2.09.57c-1.28,0-2.51-.65-2.51-1.94v-2A2.19,2.19,0,0,1,180.38,18a2.1,2.1,0,0,1,2.32,1.88v1.18h-3.84v.76c0,.83.8,1.22,1.69,1.22A3.13,3.13,0,0,0,182.28,22.64Zm-3.42-2.72v.5h3v-.5c0-.68-.68-1.15-1.48-1.15S178.87,19.25,178.86,19.92Z"/><path class="cls-6" d="M189,20v3.79h-.88V20.05a1.18,1.18,0,0,0-1.35-1.25c-.83,0-1.78.63-1.78,1.4v3.56h-.88V18.13h.75l.06,1.05A2.34,2.34,0,0,1,187,18,1.8,1.8,0,0,1,189,20Z"/><path class="cls-6" d="M193.8,22.83l.2.7a3.64,3.64,0,0,1-1.48.27c-1,0-1.54-.45-1.54-1.45V18.79h-.84v-.66H191V16.68h.87v1.45h1.65v.66h-1.65v3.44c0,.55.32.79.86.79A2.82,2.82,0,0,0,193.8,22.83Z"/><path class="cls-6" d="M199.92,20v3.78h-.87V20a1.16,1.16,0,0,0-1.31-1.21c-.89,0-1.81.62-1.81,1.39v3.56H195V16.14h.89v3A2.29,2.29,0,0,1,198,18,1.77,1.77,0,0,1,199.92,20Z"/><path class="cls-6" d="M205.64,22.64l.31.61a3.43,3.43,0,0,1-2.08.57c-1.28,0-2.52-.65-2.52-1.94v-2a2.2,2.2,0,0,1,2.4-1.88,2.1,2.1,0,0,1,2.31,1.88v1.18h-3.84v.76c0,.83.81,1.22,1.69,1.22A3.13,3.13,0,0,0,205.64,22.64Zm-3.42-2.72v.5h3v-.5a1.32,1.32,0,0,0-1.47-1.15C203,18.77,202.23,19.25,202.22,19.92Z"/><path class="cls-6" d="M210.52,18.09l-.13.88a3,3,0,0,0-.62-.06,1.5,1.5,0,0,0-1.34,1.6v3.25h-.89V18.13h.75l.08,1A1.66,1.66,0,0,1,209.86,18,2.78,2.78,0,0,1,210.52,18.09Z"/><path class="cls-6" d="M215.84,19.83v3.93h-.77l-.06-.64a2,2,0,0,1-1.75.69c-1.24,0-2-.55-2-1.54V21l3.69-.56v-.62c0-.69-.46-1-1.28-1a4.68,4.68,0,0,0-1.87.46l-.28-.67a5.24,5.24,0,0,1,2.22-.58C215,18,215.84,18.66,215.84,19.83ZM215,21.09l-2.8.44v.68c0,.61.5.9,1.27.9s1.53-.38,1.53-1Z"/><path class="cls-6" d="M218.27,26h-.87v-7.9h.77l.1.76a2.1,2.1,0,0,1,1.81-.86,2,2,0,0,1,2.19,2v1.79a2,2,0,0,1-2.19,2,2.15,2.15,0,0,1-1.81-.8Zm0-4.1c0,.82.77,1.2,1.64,1.2a1.33,1.33,0,0,0,1.49-1.29V20.09c0-.86-.62-1.31-1.52-1.31s-1.61.4-1.61,1.2Z"/><path class="cls-6" d="M223.91,16.14h.94V17h-.94Zm0,2h.88v5.63H224Z"/><path class="cls-6" d="M230.76,22.64l.31.61a3.43,3.43,0,0,1-2.08.57c-1.29,0-2.52-.65-2.52-1.94v-2A2.19,2.19,0,0,1,228.86,18a2.1,2.1,0,0,1,2.32,1.88v1.18h-3.84v.76c0,.83.81,1.22,1.69,1.22A3.13,3.13,0,0,0,230.76,22.64Zm-3.42-2.72v.5h3v-.5c0-.68-.68-1.15-1.48-1.15S227.35,19.25,227.34,19.92Z"/></svg>