<svg id="Ebene_1" data-name="Ebene 1" xmlns="http://www.w3.org/2000/svg" viewBox="0 0 141.73 141.73"><defs><style>.cls-1{fill:#fff;}</style></defs><path class="cls-1" d="M127.4,60.34c1.89-6.86,1.32-13-1.67-17.7-3.11-4.92-9-8.08-17.11-9.14A49.86,49.86,0,0,0,88,35.32q1.91,1.77,3.82,3.81c11.36-2.81,25.37-1.23,30,6,2.25,3.57,2.64,8.39,1.11,14-5.11,18.53-29.15,39.72-54.43,48.37C57,96.35,46.86,80.54,42,64.5c-3.52-11.67-3.68-21.73-.77-28.42a10.54,10.54,0,0,0,1.26.83,10.39,10.39,0,0,0,5.09,1.32,10.65,10.65,0,0,0,3.12-.49L66.55,66.48a10.27,10.27,0,0,0-2.41,2.78,9.92,9.92,0,0,0-1,7.69A10.14,10.14,0,0,0,68,83.16a10.54,10.54,0,0,0,14.12-3.8,9.93,9.93,0,0,0,1-7.68,10.13,10.13,0,0,0-4.91-6.21,10.53,10.53,0,0,0-8.17-.85L54.26,35.86A9.9,9.9,0,0,0,58,27.91c.91.14,1.8.31,2.67.49h0c19.85,4.26,33.38,23.69,40.5,37l-7.34-2.61,2.9,6.1,10.6,3.76,3.76-10.6-2.9-6.1-2.69,7.59c-7.49-14.08-22-35-43.85-39.72A45.37,45.37,0,0,0,56.62,23a10.16,10.16,0,0,0-3.87-3.77A10.52,10.52,0,0,0,38.63,23a9.89,9.89,0,0,0-1,7.68A8.62,8.62,0,0,0,38.09,32c-4.42,7.82-4.75,19.91-.56,33.84C42.32,81.73,52.1,97.41,63.46,109c-13.85,3.77-25.42,2.74-31.18-2.89-3.82-3.73-4.84-9.34-3-16.21a43.55,43.55,0,0,1,3.13-8.12l.88,7,4.14-5.34-1.4-11.16L24.92,73.73l-4.14,5.33,8.36-1a48.3,48.3,0,0,0-4.33,10.64c-2.34,8.5-.85,15.89,4.19,20.82a22.64,22.64,0,0,0,11.31,5.69c7.23,1.55,16.33.83,26.5-2.23l.54-.18c7.4,6.73,15.28,11.63,22.77,13.7.68.18,1.34.35,2,.48,9.23,2,14-1.08,15.73-2.16,4.9-3.12,8.23-9.11,9.38-16.85a43.63,43.63,0,0,0-2-20.69c-.22-.6-.46-1.2-.71-1.8q-1.72,1.88-3.6,3.7c3.86,10.93,2.55,26.52-5.59,31.71-1.47.94-5.37,3.43-13.91,1.08-6.22-1.71-12.74-5.57-19-10.88C98.08,101.42,122.1,79.6,127.4,60.34ZM76.22,69.15a6,6,0,0,1,2.89,3.64,5.78,5.78,0,0,1-.59,4.45,6.28,6.28,0,0,1-8.44,2.23,5.91,5.91,0,0,1-2.89-3.63,5.7,5.7,0,0,1,.59-4.45,6.19,6.19,0,0,1,5.37-3A6.3,6.3,0,0,1,76.22,69.15Zm-33.95-44a6.19,6.19,0,0,1,5.37-3,6.3,6.3,0,0,1,3.07.79,6,6,0,0,1,2.89,3.64A5.74,5.74,0,0,1,53,31a6,6,0,0,1-1,1.3L49.2,33.83a6.38,6.38,0,0,1-4.64-.6,6,6,0,0,1-2.88-3.64A5.7,5.7,0,0,1,42.27,25.14Z"/></svg>