<svg id="Ebene_1" data-name="Ebene 1" xmlns="http://www.w3.org/2000/svg" viewBox="0 0 141.73 141.73"><defs><style>.cls-1{fill:#4e5759;}</style></defs><path class="cls-1" d="M127.4,58.81c1.89-6.87,1.32-13-1.67-17.71-3.11-4.92-9-8.07-17.11-9.13A49.69,49.69,0,0,0,88,33.79c1.27,1.18,2.54,2.44,3.82,3.8,11.36-2.8,25.37-1.22,30,6,2.25,3.57,2.64,8.4,1.11,14-5.11,18.54-29.15,39.72-54.43,48.37C57,94.81,46.86,79,42,63c-3.52-11.68-3.68-21.74-.77-28.43a10.61,10.61,0,0,0,1.26.84,10.5,10.5,0,0,0,5.09,1.32,10.65,10.65,0,0,0,3.12-.49L66.55,65a10.12,10.12,0,0,0-2.41,2.78,9.9,9.9,0,0,0-1,7.69,10.1,10.1,0,0,0,4.9,6.2,10.51,10.51,0,0,0,14.12-3.79,10,10,0,0,0,1-7.69,10.11,10.11,0,0,0-4.91-6.2,10.48,10.48,0,0,0-8.17-.85L54.26,34.33A9.9,9.9,0,0,0,58,26.38c.91.14,1.8.3,2.67.49h0c19.85,4.27,33.38,23.69,40.5,37l-7.34-2.61,2.9,6.1,10.6,3.76,3.76-10.6-2.9-6.1L105.53,62C98,47.93,83.52,27,61.68,22.29a43.14,43.14,0,0,0-5.06-.82,10.26,10.26,0,0,0-3.87-3.78,10.52,10.52,0,0,0-14.12,3.8,9.89,9.89,0,0,0-1,7.68,8.62,8.62,0,0,0,.47,1.32c-4.42,7.82-4.75,19.91-.56,33.83,4.79,15.87,14.57,31.56,25.93,43.15-13.85,3.77-25.42,2.73-31.18-2.89-3.82-3.73-4.84-9.34-3-16.22a44.11,44.11,0,0,1,3.13-8.12l.88,7L37.48,82l-1.4-11.16-11.16,1.4-4.14,5.34,8.36-1.06a48.61,48.61,0,0,0-4.33,10.65C22.47,95.61,24,103,29,107.93a22.65,22.65,0,0,0,11.31,5.7c7.23,1.55,16.33.83,26.5-2.24l.54-.17c7.4,6.72,15.28,11.63,22.77,13.69.68.19,1.34.35,2,.49,9.23,2,14-1.08,15.73-2.16,4.9-3.12,8.23-9.11,9.38-16.86a43.61,43.61,0,0,0-2-20.68c-.22-.61-.46-1.2-.71-1.8q-1.72,1.88-3.6,3.69c3.86,10.93,2.55,26.53-5.59,31.72-1.47.94-5.37,3.43-13.91,1.08-6.22-1.71-12.74-5.57-19-10.88C98.08,99.88,122.1,78.07,127.4,58.81ZM76.22,67.62a6,6,0,0,1,2.89,3.64,5.76,5.76,0,0,1-.59,4.44,6.28,6.28,0,0,1-8.44,2.24,5.93,5.93,0,0,1-2.89-3.64,5.7,5.7,0,0,1,.59-4.45,6.19,6.19,0,0,1,5.37-3A6.31,6.31,0,0,1,76.22,67.62Zm-33.95-44a6.19,6.19,0,0,1,5.37-3,6.31,6.31,0,0,1,3.07.8A6,6,0,0,1,53.6,25,5.9,5.9,0,0,1,52,30.77L49.2,32.29a6.37,6.37,0,0,1-4.64-.59,6,6,0,0,1-2.88-3.64A5.7,5.7,0,0,1,42.27,23.61Z"/></svg>