<svg id="Ebene_1" data-name="Ebene 1" xmlns="http://www.w3.org/2000/svg" viewBox="0 0 141.73 141.73"><defs><style>.cls-1{fill:#4e5759;}</style></defs><path class="cls-1" d="M46,42.6A75.44,75.44,0,0,1,43.8,25.28h0a4,4,0,0,0-4,4.24A79.25,79.25,0,0,0,42,43.62L51.1,80.1a39.12,39.12,0,0,1,1.17,9.51,48.1,48.1,0,0,1-6.85,24.74l-1.16,1.91a20.37,20.37,0,0,0-1.38,2.44L47,119.84l2-3.34a52.21,52.21,0,0,0,7.45-26.89,43.41,43.41,0,0,0-1.29-10.52Zm73,6.56L91.23,23.46h0a4.19,4.19,0,0,0,.24,5.91l24.1,22.24V52c0,12.43-9.53,22.17-21.7,22.17a12.07,12.07,0,0,1-6.39-1.77,4.51,4.51,0,0,0-5.64.88h0a17.44,17.44,0,0,0,7.24,4.37l.49.14.1.5c.8,3.66,1.51,6.88,2.15,9.76,3.45,15.68,4.69,21.28,4.76,30.43h4.18c-.07-9.67-1.44-15.87-4.62-30.24-.59-2.65-1.24-5.58-2-8.87l-.22-1,1,0c1,0,24.76-1.37,24.76-27.62A2.11,2.11,0,0,0,119.07,49.16Z"/></svg>