<svg id="Ebene_1" data-name="Ebene 1" xmlns="http://www.w3.org/2000/svg" viewBox="0 0 141.73 141.73"><defs><style>.cls-1{fill:#fff;}</style></defs><path class="cls-1" d="M46,43.7A75.52,75.52,0,0,1,43.8,26.37h0a4,4,0,0,0-4,4.24A79.22,79.22,0,0,0,42,44.72L51.1,81.2a39,39,0,0,1,1.17,9.51,48.13,48.13,0,0,1-6.85,24.74l-1.16,1.91a20.37,20.37,0,0,0-1.38,2.44L47,120.94l2-3.34a52.21,52.21,0,0,0,7.45-26.89,43.43,43.43,0,0,0-1.29-10.53Zm73,6.56L91.23,24.56h0a4.19,4.19,0,0,0,.24,5.91l24.1,22.24v.38c0,12.43-9.53,22.17-21.7,22.17a12.07,12.07,0,0,1-6.39-1.77,4.49,4.49,0,0,0-5.64.88h0a17.33,17.33,0,0,0,7.24,4.36l.49.15.1.5c.8,3.65,1.51,6.88,2.15,9.76,3.45,15.68,4.69,21.27,4.76,30.42h4.18c-.07-9.67-1.44-15.86-4.62-30.24-.59-2.65-1.24-5.58-2-8.86l-.22-1,1,0c1,0,24.76-1.36,24.76-27.62A2.08,2.08,0,0,0,119.07,50.26Z"/></svg>