<svg id="Ebene_1" data-name="Ebene 1" xmlns="http://www.w3.org/2000/svg" viewBox="0 0 141.73 141.73"><defs><style>.cls-1{fill:#fff;}</style></defs><path class="cls-1" d="M131,76.36a11.16,11.16,0,0,0-5.42-6.86,11.6,11.6,0,0,0-8.86-1L101.07,37.71a11.18,11.18,0,0,0,3.12-3.43,10.94,10.94,0,0,0,1.13-8.49,11.23,11.23,0,0,0-5.42-6.86,11.61,11.61,0,0,0-15.59,4.19,11,11,0,0,0-1.5,6.28l-36.3,8.77A11.27,11.27,0,0,0,41.71,33a11.62,11.62,0,0,0-15.6,4.19A11,11,0,0,0,25,45.66a11.18,11.18,0,0,0,5.42,6.85A11.49,11.49,0,0,0,36,54a11.31,11.31,0,0,0,2.09-.21L44,69.11,32,79.41a11.85,11.85,0,0,0-1.5-1,11.62,11.62,0,0,0-15.6,4.18,11,11,0,0,0-1.12,8.49,11.23,11.23,0,0,0,5.42,6.86,11.65,11.65,0,0,0,13.5-1.61l21.41,15.5a10.93,10.93,0,0,0-.8,7.88,11.18,11.18,0,0,0,5.42,6.85,11.6,11.6,0,0,0,15.59-4.19,11,11,0,0,0,1.12-8.48,10.12,10.12,0,0,0-.64-1.72l37-25a11.6,11.6,0,0,0,18.08-2.32h0A11,11,0,0,0,131,76.36ZM30.73,91.4a6.94,6.94,0,0,1-9.32,2.47,6.56,6.56,0,0,1-3.19-4,6.31,6.31,0,0,1,.65-4.91A6.85,6.85,0,0,1,24.8,81.6a7,7,0,0,1,3.39.87,6.56,6.56,0,0,1,3.19,4A6.31,6.31,0,0,1,30.73,91.4ZM88.32,25.47A6.94,6.94,0,0,1,97.64,23a6.56,6.56,0,0,1,3.19,4,6.31,6.31,0,0,1-.65,4.91h0a6.94,6.94,0,0,1-9.32,2.47,6.56,6.56,0,0,1-3.19-4A6.31,6.31,0,0,1,88.32,25.47ZM47.5,42l36.3-8.76q.28.61.63,1.2L59.14,56.13,46.46,47.45A11,11,0,0,0,47.5,42Zm21,33.41a11.18,11.18,0,0,0,5.42,6.85l.15.08-8,23.33a11.85,11.85,0,0,0-3.76.06L48.72,70.32l10.69-9.15,9.73,6.66A11,11,0,0,0,68.47,75.45Zm5.14-6.14A6.84,6.84,0,0,1,79.54,66a6.92,6.92,0,0,1,3.39.88,6.57,6.57,0,0,1,3.19,4,6.42,6.42,0,0,1-.65,4.92,7,7,0,0,1-9.33,2.47,6.56,6.56,0,0,1-3.19-4A6.35,6.35,0,0,1,73.61,69.31ZM32.66,48.45a6.57,6.57,0,0,1-3.18-4,6.34,6.34,0,0,1,.65-4.92,6.95,6.95,0,0,1,9.32-2.46,6.54,6.54,0,0,1,3.19,4A6.42,6.42,0,0,1,42,46,7,7,0,0,1,32.66,48.45Zm9.22,3.94a10.78,10.78,0,0,0,2.25-1.69L56,58.83l-8.78,7.52Zm-6,32.87a11.67,11.67,0,0,0-1.25-2.87L45.5,73.08l13,34.07a11.79,11.79,0,0,0-2,1.48L35.06,93.14A10.93,10.93,0,0,0,35.87,85.26ZM70.25,120h0a6.94,6.94,0,0,1-9.32,2.47,6.56,6.56,0,0,1-3.19-4,6.35,6.35,0,0,1,.66-4.91,6.82,6.82,0,0,1,5.93-3.35,6.92,6.92,0,0,1,3.39.88,6.6,6.6,0,0,1,3.19,4A6.36,6.36,0,0,1,70.25,120Zm2.21-11.14A11.55,11.55,0,0,0,70,107l-.15-.07,8-23.34a11.76,11.76,0,0,0,1.67.14,11.51,11.51,0,0,0,10-5.65h0a10.7,10.7,0,0,0,.82-1.75l18.17,3a11.1,11.1,0,0,0,.38,2.79,10.12,10.12,0,0,0,.64,1.72ZM110,73.69a11.2,11.2,0,0,0-.82,1.76L91,72.42a11.07,11.07,0,0,0-5.8-9.65,11.66,11.66,0,0,0-13.71,1.81l-8.92-6.1,24.55-21a11.85,11.85,0,0,0,1.5,1,11.53,11.53,0,0,0,5.62,1.46,11.75,11.75,0,0,0,3.24-.47L113.1,70.26A11.21,11.21,0,0,0,110,73.69Zm15.87,8.81A6.94,6.94,0,0,1,116.52,85a6.56,6.56,0,0,1-3.19-4A6.36,6.36,0,0,1,114,76a6.86,6.86,0,0,1,5.93-3.35,7,7,0,0,1,3.39.88,6.6,6.6,0,0,1,3.19,4A6.36,6.36,0,0,1,125.84,82.5Z"/></svg>