<svg id="Ebene_1" data-name="Ebene 1" xmlns="http://www.w3.org/2000/svg" viewBox="0 0 141.73 141.73"><defs><style>.cls-1{fill:#4e5759;}</style></defs><path class="cls-1" d="M131,78.7a11.12,11.12,0,0,0-5.42-6.85,11.56,11.56,0,0,0-8.86-1L101.07,40.05a11.07,11.07,0,0,0,3.12-3.43,10.94,10.94,0,0,0,1.13-8.49,11.23,11.23,0,0,0-5.42-6.86,11.62,11.62,0,0,0-15.59,4.19,11,11,0,0,0-1.5,6.28l-36.3,8.77a11.27,11.27,0,0,0-4.8-5.19,11.62,11.62,0,0,0-15.6,4.19A11,11,0,0,0,25,48a11.15,11.15,0,0,0,5.42,6.85A11.5,11.5,0,0,0,36,56.31a12.24,12.24,0,0,0,2.09-.21L44,71.45,32,81.76a11.92,11.92,0,0,0-1.5-1,11.62,11.62,0,0,0-15.6,4.19,11,11,0,0,0-1.12,8.49,11.21,11.21,0,0,0,5.42,6.85,11.65,11.65,0,0,0,13.5-1.61l21.41,15.5a10.93,10.93,0,0,0-.8,7.88,11.2,11.2,0,0,0,5.42,6.86,11.63,11.63,0,0,0,15.59-4.19,11,11,0,0,0,1.12-8.49,10.12,10.12,0,0,0-.64-1.72l37-25a11.6,11.6,0,0,0,18.08-2.32h0A11,11,0,0,0,131,78.7Zm-100.25,15a6.93,6.93,0,0,1-9.32,2.47,6.54,6.54,0,0,1-3.19-4,6.33,6.33,0,0,1,.65-4.92,6.85,6.85,0,0,1,5.93-3.34,7,7,0,0,1,3.39.87,6.59,6.59,0,0,1,3.19,4A6.31,6.31,0,0,1,30.73,93.74ZM88.32,27.81a6.86,6.86,0,0,1,5.94-3.35,7,7,0,0,1,3.38.88,6.56,6.56,0,0,1,3.19,4,6.31,6.31,0,0,1-.65,4.91h0a6.94,6.94,0,0,1-9.32,2.47,6.56,6.56,0,0,1-3.19-4A6.31,6.31,0,0,1,88.32,27.81ZM47.5,44.38l36.3-8.76q.28.62.63,1.2L59.14,58.48,46.46,49.79A11,11,0,0,0,47.5,44.38Zm21,33.41a11.2,11.2,0,0,0,5.42,6.86l.15.07-8,23.33a11.85,11.85,0,0,0-3.76.06L48.72,72.66l10.69-9.15,9.73,6.67A10.92,10.92,0,0,0,68.47,77.79Zm5.14-6.14a6.84,6.84,0,0,1,5.93-3.35,6.92,6.92,0,0,1,3.39.88,6.56,6.56,0,0,1,3.19,4,6.4,6.4,0,0,1-.65,4.91,7,7,0,0,1-9.33,2.47,6.56,6.56,0,0,1-3.19-4A6.35,6.35,0,0,1,73.61,71.65ZM32.66,50.79a6.55,6.55,0,0,1-3.18-4,6.31,6.31,0,0,1,.65-4.91,6.84,6.84,0,0,1,5.93-3.35,6.92,6.92,0,0,1,3.39.88,6.56,6.56,0,0,1,3.19,4A6.4,6.4,0,0,1,42,48.32,7,7,0,0,1,32.66,50.79Zm9.22,4a11.52,11.52,0,0,0,2.25-1.69L56,61.17l-8.78,7.52Zm-6,32.86a11.44,11.44,0,0,0-1.25-2.86L45.5,75.42l13,34.07a11.34,11.34,0,0,0-2,1.49l-21.4-15.5A10.93,10.93,0,0,0,35.87,87.6Zm34.38,34.77h0a6.94,6.94,0,0,1-9.32,2.47,6.56,6.56,0,0,1-3.19-4,6.35,6.35,0,0,1,.66-4.91,6.82,6.82,0,0,1,5.93-3.35,6.92,6.92,0,0,1,3.39.88,6.6,6.6,0,0,1,3.19,4A6.36,6.36,0,0,1,70.25,122.37Zm2.21-11.13A11.59,11.59,0,0,0,70,109.37l-.15-.07,8-23.33a11.74,11.74,0,0,0,1.67.13,11.53,11.53,0,0,0,10-5.64h0a11.2,11.2,0,0,0,.82-1.76l18.17,3a11.1,11.1,0,0,0,.38,2.79,10.12,10.12,0,0,0,.64,1.72ZM110,76a10.7,10.7,0,0,0-.82,1.75L91,74.76a11.07,11.07,0,0,0-5.8-9.65,11.66,11.66,0,0,0-13.71,1.82l-8.92-6.11,24.55-21a11.92,11.92,0,0,0,1.5,1,11.62,11.62,0,0,0,5.62,1.45,11.75,11.75,0,0,0,3.24-.47L113.1,72.6A11.25,11.25,0,0,0,110,76Zm15.87,8.8a6.93,6.93,0,0,1-9.32,2.47,6.56,6.56,0,0,1-3.19-4,6.36,6.36,0,0,1,.66-4.91A6.85,6.85,0,0,1,119.92,75a7,7,0,0,1,3.39.87,6.6,6.6,0,0,1,3.19,4A6.35,6.35,0,0,1,125.84,84.84Z"/></svg>