<svg id="Ebene_1" data-name="Ebene 1" xmlns="http://www.w3.org/2000/svg" viewBox="0 0 141.73 141.73"><defs><style>.cls-1{fill:#4e5759;}</style></defs><path class="cls-1" d="M101.28,77.76a14.06,14.06,0,0,0-5.74-1.86,34.67,34.67,0,0,0,9.07-10.59c9.28-16.72,3.56-38.07-12.74-47.6a33.16,33.16,0,0,0-25.7-3.41A34,34,0,0,0,45.35,30.78,35.54,35.54,0,0,0,55,76.34a14.47,14.47,0,0,0-2.91.47,14.31,14.31,0,0,0-8.76,6.93,14.87,14.87,0,0,0,5.36,20,13.92,13.92,0,0,0,10.82,1.43,14.18,14.18,0,0,0,7.35-4.84v20.12a4,4,0,0,0,4,4V78.73l-1.61-.32a29.85,29.85,0,0,1-9.14-3.48C45.67,66.49,40.62,47.55,48.85,32.72A30,30,0,0,1,67.23,18.16a29.21,29.21,0,0,1,22.62,3h0c14.44,8.44,19.49,27.38,11.26,42.21a30.12,30.12,0,0,1-20.4,15l-1.61.32v31.74a4,4,0,0,0,4,4h0V99.79a14.35,14.35,0,0,0,4,3.42,13.92,13.92,0,0,0,10.82,1.43,14.26,14.26,0,0,0,8.76-6.92A14.86,14.86,0,0,0,101.28,77.76ZM64.77,96.27a10.29,10.29,0,0,1-6.31,5,10,10,0,0,1-7.76-1,10.86,10.86,0,0,1-3.87-14.57,10.33,10.33,0,0,1,6.32-5,10,10,0,0,1,7.75,1A10.84,10.84,0,0,1,64.77,96.27Zm38.36-.49a10.31,10.31,0,0,1-6.31,5,10.05,10.05,0,0,1-7.76-1,10.86,10.86,0,0,1-3.87-14.57,10.33,10.33,0,0,1,6.32-5,10,10,0,0,1,7.75,1h0A10.85,10.85,0,0,1,103.13,95.78Z"/></svg>