<svg id="Ebene_1" data-name="Ebene 1" xmlns="http://www.w3.org/2000/svg" viewBox="0 0 141.73 141.73"><defs><style>.cls-1{fill:#fff;}</style></defs><path class="cls-1" d="M101.28,81.74a14,14,0,0,0-5.74-1.85,34.67,34.67,0,0,0,9.07-10.59c9.28-16.72,3.56-38.08-12.74-47.61a33.2,33.2,0,0,0-25.7-3.4A34,34,0,0,0,45.35,34.77,35.54,35.54,0,0,0,55,80.33a13.8,13.8,0,0,0-2.91.47,14.26,14.26,0,0,0-8.76,6.92,14.88,14.88,0,0,0,5.36,20,13.92,13.92,0,0,0,10.82,1.43,14.24,14.24,0,0,0,7.35-4.84V124.4a4,4,0,0,0,4,4V82.72l-1.61-.33a29.57,29.57,0,0,1-9.14-3.47C45.67,70.48,40.62,51.54,48.85,36.71A30,30,0,0,1,67.23,22.15a29.16,29.16,0,0,1,22.62,3h0c14.44,8.44,19.49,27.37,11.26,42.21a30.15,30.15,0,0,1-20.4,15l-1.61.32v31.73a4,4,0,0,0,4,4h0V103.77a14.39,14.39,0,0,0,4,3.43,13.92,13.92,0,0,0,10.82,1.43,14.26,14.26,0,0,0,8.76-6.92A14.87,14.87,0,0,0,101.28,81.74ZM64.77,100.25a10.31,10.31,0,0,1-6.31,5,10,10,0,0,1-7.76-1,10.84,10.84,0,0,1-3.87-14.56,10.3,10.3,0,0,1,6.32-5,10,10,0,0,1,7.75,1A10.83,10.83,0,0,1,64.77,100.25Zm38.36-.48a10.26,10.26,0,0,1-6.31,5,10,10,0,0,1-7.76-1,10.86,10.86,0,0,1-3.87-14.57,10.3,10.3,0,0,1,6.32-5,10,10,0,0,1,7.75,1h0A10.84,10.84,0,0,1,103.13,99.77Z"/></svg>