<svg id="Ebene_1" data-name="Ebene 1" xmlns="http://www.w3.org/2000/svg" viewBox="0 0 141.73 141.73"><defs><style>.cls-1{fill:#4e5759;}</style></defs><path class="cls-1" d="M89.35,26.44h0a4,4,0,0,0-4.9,2.83l-7.23,27a20.27,20.27,0,0,1,3.9.89ZM65.6,58.22,44,20.76l-3.47,2,21.7,37.58A19.46,19.46,0,0,1,65.6,58.22ZM86,59.55,102,31.8a4,4,0,0,0-1.46-5.46h0L82.44,57.66A19.59,19.59,0,0,1,86,59.55Zm-15.4-3L64.51,33.88l-3.87,1,6.1,22.77A19.78,19.78,0,0,1,70.57,56.5Zm5.29-.34V40.53h-4V56.3a21,21,0,0,1,2.76-.2C75,56.1,75.45,56.13,75.86,56.16Zm34.5,32.21,1.06-3.85-16.73-4.6a20,20,0,0,1-1.06,3.86ZM93,67.77l24-13.84-2-3.46L91,64.34A20.17,20.17,0,0,1,93,67.77ZM112.9,64,93.62,69.16A19.94,19.94,0,0,1,94.69,73l19.25-5.16Zm-57,4.46A20.51,20.51,0,0,1,57.81,65l-10.6-6.12h0a4,4,0,0,0,1.46,5.46ZM74.62,89A12.56,12.56,0,1,0,63.11,71.45H22.82a4,4,0,0,0-4,4H66l.47-1.58c0-.08,0-.15.07-.22A8.56,8.56,0,1,1,74.25,85a8.81,8.81,0,0,1-7.91-6.38L66,77.51H18.82a4,4,0,0,0,4,4h40.3A12.64,12.64,0,0,0,74.62,89ZM87.14,60.42A20.94,20.94,0,0,1,90,63.17l9.56-9.56-2.83-2.82Zm0,32.16,19.76,19.75,2.82-2.82L90,89.83A20.47,20.47,0,0,1,87.09,92.58Zm-9.9,4.1L81.57,113l3.86-1L81.1,95.79A20.37,20.37,0,0,1,77.19,96.68Zm5.21-1.36L99,124h0a4,4,0,0,0,1.47-5.46L85.93,93.43A20.24,20.24,0,0,1,82.4,95.32Zm8.52-6.64,27.82,16.06,2-3.46L93,85.26A20.48,20.48,0,0,1,90.92,88.68ZM61.27,61.1,40.83,40.66a4,4,0,0,0-5.66,0h0L58.52,64A20.47,20.47,0,0,1,61.27,61.1ZM94.93,75.16c0,.44.07.87.07,1.32a21.53,21.53,0,0,1-.19,2.68h24.65a4,4,0,0,0,4-4H94.93ZM61.31,91.9A19.87,19.87,0,0,1,58.56,89l-8.87,8.87a4,4,0,0,0,0,5.65h0Zm-5.4-7.32L37.4,95.26l2,3.47L57.86,88.07A20.51,20.51,0,0,1,55.91,84.58Zm16,12.08v11.26h4V96.8c-.41,0-.82.06-1.24.06A21,21,0,0,1,71.86,96.66Zm-9.62-4-13,22.5,3.47,2L65.64,94.76A20.52,20.52,0,0,1,62.24,92.65Zm-.93,23,3.87,1,5.41-20.2a19.76,19.76,0,0,1-3.83-1.17Z"/></svg>