<svg id="Ebene_1" data-name="Ebene 1" xmlns="http://www.w3.org/2000/svg" viewBox="0 0 141.73 141.73"><defs><style>.cls-1{fill:#fff;}</style></defs><path class="cls-1" d="M89.35,26.82h0a4,4,0,0,0-4.9,2.83l-7.23,27a21.06,21.06,0,0,1,3.9.9ZM65.6,58.59,44,21.14l-3.47,2,21.7,37.57A20.74,20.74,0,0,1,65.6,58.59ZM86,59.93l16-27.75a4,4,0,0,0-1.46-5.47h0L82.44,58A19.63,19.63,0,0,1,86,59.93Zm-15.4-3L64.51,34.25l-3.87,1,6.1,22.76A19.76,19.76,0,0,1,70.57,56.88Zm5.29-.35V40.91h-4V56.68a21,21,0,0,1,2.76-.21C75,56.47,75.45,56.51,75.86,56.53Zm34.5,32.22,1.06-3.86-16.73-4.6a19.82,19.82,0,0,1-1.06,3.86ZM93,68.14l24-13.83-2-3.47L91,64.71A20.57,20.57,0,0,1,93,68.14Zm19.87-3.77L93.62,69.53a20,20,0,0,1,1.07,3.86l19.25-5.16Zm-57,4.46a20.6,20.6,0,0,1,1.93-3.51L47.21,59.2h0a4,4,0,0,0,1.46,5.46ZM74.62,89.41A12.56,12.56,0,1,0,63.11,71.82H22.82a4,4,0,0,0-4,4H66l.47-1.58c0-.07,0-.14.07-.21A8.56,8.56,0,1,1,74.25,85.4,8.78,8.78,0,0,1,66.34,79L66,77.88H18.82a4,4,0,0,0,4,4h40.3A12.64,12.64,0,0,0,74.62,89.41ZM87.14,60.79A21.62,21.62,0,0,1,90,63.55L99.6,54l-2.83-2.83Zm0,32.16,19.76,19.76,2.82-2.83L90,90.2A20.47,20.47,0,0,1,87.09,93Zm-9.9,4.11,4.38,16.34,3.86-1L81.1,96.17A20.37,20.37,0,0,1,77.19,97.06Zm5.21-1.37L99,124.36h0a4,4,0,0,0,1.47-5.47L85.93,93.81A19.54,19.54,0,0,1,82.4,95.69Zm8.52-6.63,27.82,16.06,2-3.47L93,85.63A20.17,20.17,0,0,1,90.92,89.06ZM61.27,61.47,40.83,41a4,4,0,0,0-5.66,0h0L58.52,64.38A20.47,20.47,0,0,1,61.27,61.47ZM94.93,75.53c0,.44.07.88.07,1.32a21.53,21.53,0,0,1-.19,2.68h24.65a4,4,0,0,0,4-4H94.93ZM61.31,92.28a20.94,20.94,0,0,1-2.75-2.9l-8.87,8.86a4,4,0,0,0,0,5.66h0ZM55.91,85,37.4,95.64l2,3.46L57.86,88.45A21,21,0,0,1,55.91,85ZM71.86,97V108.3h4V97.18c-.41,0-.82.06-1.24.06A21,21,0,0,1,71.86,97Zm-9.62-4-13,22.5,3.47,2L65.64,95.14A20.57,20.57,0,0,1,62.24,93Zm-.93,23,3.87,1,5.41-20.2a20.48,20.48,0,0,1-3.83-1.17Z"/></svg>