<svg id="Ebene_1" data-name="Ebene 1" xmlns="http://www.w3.org/2000/svg" viewBox="0 0 141.73 141.73"><defs><style>.cls-1{fill:#4e5759;}</style></defs><path class="cls-1" d="M89.83,67.05a6.71,6.71,0,0,0-9.42,1c-.11.14-.21.29-.31.44a8.26,8.26,0,0,0-.88-.68,6.71,6.71,0,0,0,.57-8.57A6.7,6.7,0,1,0,69,67.15a7,7,0,0,0,.89,1,8,8,0,0,0-3,5.14,7.83,7.83,0,0,0,0,2,6.08,6.08,0,0,0-.74-.16A6.69,6.69,0,1,0,64,88.4a7.4,7.4,0,0,0,1,.08,6.64,6.64,0,0,0,3.94-1.29,6.7,6.7,0,0,0,2.67-4.38,8.31,8.31,0,0,0,.07-.86,8.24,8.24,0,0,0,1.84.52,7.64,7.64,0,0,0,1.26.1,8,8,0,0,0,7.28-4.66,6.69,6.69,0,0,0,7.77-10.86ZM71.71,62.79a2.71,2.71,0,0,1,2.67-2.29,3,3,0,0,1,.41,0,2.69,2.69,0,1,1-3.08,2.25ZM67.65,82.2a2.68,2.68,0,0,1-3.07,2.25,2.74,2.74,0,0,1-1.77-1.08A2.7,2.7,0,0,1,65,79.09a3,3,0,0,1,.42,0A2.69,2.69,0,0,1,67.65,82.2Zm11.11-7.06a4,4,0,0,1-4.62,3.38,4,4,0,0,1,.62-8,3.35,3.35,0,0,1,.63,0,4,4,0,0,1,3.37,4.62Zm9-1.18a2.71,2.71,0,0,1-3.79.4,2.64,2.64,0,0,1-1-1.81,2.7,2.7,0,0,1,2.39-3h.29a2.66,2.66,0,0,1,1.69.6A2.7,2.7,0,0,1,87.73,74Z"/><path class="cls-1" d="M117,71.63a9.75,9.75,0,0,0-10.59,6.25l-4.55-.68a30.8,30.8,0,0,0-6-21.09,31.28,31.28,0,0,0-4.1-4.55L94.61,48A9.69,9.69,0,0,0,99,49a10.51,10.51,0,0,0,1.12-.06,9.75,9.75,0,1,0-8.61-3.47l-2.85,3.59a31.1,31.1,0,0,0-27.41-4L59.6,40.78a9.75,9.75,0,1,0-9.16.73,9.55,9.55,0,0,0,5.42.68l1.65,4.32a31.19,31.19,0,0,0-5.12,3.08A30.82,30.82,0,0,0,40.5,68L36,67.33A9.75,9.75,0,1,0,24.77,77.54a10.1,10.1,0,0,0,1.45.1,9.77,9.77,0,0,0,9.13-6.36L39.9,72a30.88,30.88,0,0,0,6,21.1A31.82,31.82,0,0,0,50,97.61l-2.86,3.58A9.75,9.75,0,1,0,50.37,116h0a9.75,9.75,0,0,0-.12-12.3l2.86-3.58a30.92,30.92,0,0,0,13.15,5.22,32,32,0,0,0,4.67.35,30.65,30.65,0,0,0,9.14-1.4l1.8,4.3A9.71,9.71,0,1,0,85.56,107l-1.76-4.19a31.61,31.61,0,0,0,5.54-3.25,30.87,30.87,0,0,0,11.9-18.42l4.54.68a9.76,9.76,0,0,0,8.29,9.08,9.06,9.06,0,0,0,1.46.11A9.75,9.75,0,0,0,117,71.63Zm-22.48-36a5.7,5.7,0,0,1,3.85-2.13,4.87,4.87,0,0,1,.66,0,5.76,5.76,0,1,1-3.59,10.26,5.75,5.75,0,0,1-.92-8.09ZM52,37.84a5.75,5.75,0,1,1,7.65-7.38h0A5.75,5.75,0,0,1,52,37.84ZM31.9,68.74a5.75,5.75,0,1,1-5.69-6.61,4.88,4.88,0,0,1,.85.07,5.75,5.75,0,0,1,4.84,6.54Zm15.34,44.75a5.74,5.74,0,1,1-.91-8.08A5.75,5.75,0,0,1,47.24,113.49Zm42.45-2.16a5.68,5.68,0,0,1,3.06,3.16h0A5.76,5.76,0,0,1,89.5,122a5.75,5.75,0,1,1-2.1-11.12A5.55,5.55,0,0,1,89.69,111.33Zm8.24-38.06a27.13,27.13,0,0,1-27.05,28.4,26.33,26.33,0,0,1-4-.31A26.84,26.84,0,0,1,55.6,97l3.06-3.83,0,0a4.28,4.28,0,0,0-5.73.84l-.41.52a27.87,27.87,0,0,1-3.39-3.79,26.86,26.86,0,0,1-5.22-18.12l2.78.41a2,2,0,0,0,2.25-1.66v0c.1-.67.24-1.32.39-2l-4.83-.73A27,27,0,0,1,58.94,50.28l.2.52a4.25,4.25,0,0,0,5.21,2.55h0l-1.74-4.57a26.76,26.76,0,0,1,8.16-1.27,28,28,0,0,1,4.07.3A27,27,0,0,1,95.16,62.58,26,26,0,0,1,97.93,73.27Zm23.28,8.86A5.77,5.77,0,0,1,114.67,87a5.75,5.75,0,0,1-4.84-6.55,5.76,5.76,0,0,1,5.68-4.9,6.11,6.11,0,0,1,.86.06,5.76,5.76,0,0,1,4.84,6.55Z"/></svg>