<svg id="Ebene_1" data-name="Ebene 1" xmlns="http://www.w3.org/2000/svg" viewBox="0 0 141.73 141.73"><defs><style>.cls-1{fill:#fff;}</style></defs><path class="cls-1" d="M89.83,65.22a6.71,6.71,0,0,0-9.42,1c-.11.14-.21.29-.31.44a8.26,8.26,0,0,0-.88-.68,6.71,6.71,0,0,0,.57-8.57A6.7,6.7,0,1,0,69,65.32a7,7,0,0,0,.89,1,8,8,0,0,0-3,5.14,7.82,7.82,0,0,0,0,2,6.11,6.11,0,0,0-.74-.17,6.69,6.69,0,0,0-7.64,5.59A6.69,6.69,0,0,0,64,86.57a7.4,7.4,0,0,0,1,.08A6.7,6.7,0,0,0,71.61,81a8.54,8.54,0,0,0,.07-.86,8.24,8.24,0,0,0,1.84.52,7.64,7.64,0,0,0,1.26.1,8,8,0,0,0,7.28-4.66,6.69,6.69,0,0,0,7.77-10.86ZM71.71,61a2.71,2.71,0,0,1,2.67-2.28,2,2,0,0,1,.41,0A2.69,2.69,0,1,1,71.71,61ZM67.65,80.37a2.69,2.69,0,1,1-5.32-.83A2.7,2.7,0,0,1,65,77.25a3,3,0,0,1,.42,0A2.69,2.69,0,0,1,67.65,80.37Zm11.11-7.06a4,4,0,0,1-4.62,3.38,4,4,0,0,1,.62-8,4.44,4.44,0,0,1,.63,0,4.06,4.06,0,0,1,3.37,4.63Zm9-1.19a2.7,2.7,0,0,1-3.79.41,2.64,2.64,0,0,1-1-1.81,2.7,2.7,0,0,1,2.39-3h.29a2.66,2.66,0,0,1,1.69.59A2.7,2.7,0,0,1,87.73,72.12Z"/><path class="cls-1" d="M117,69.8a9.74,9.74,0,0,0-10.59,6.25l-4.55-.68a30.83,30.83,0,0,0-6-21.1,32.36,32.36,0,0,0-4.1-4.55l2.85-3.58a9.69,9.69,0,0,0,4.36,1,10.51,10.51,0,0,0,1.12-.06,9.75,9.75,0,1,0-8.61-3.47l-2.85,3.58a31.14,31.14,0,0,0-27.41-4L59.6,38.94a9.74,9.74,0,1,0-9.16.74,9.55,9.55,0,0,0,5.42.68l1.65,4.32a31.19,31.19,0,0,0-5.12,3.08A30.79,30.79,0,0,0,40.5,66.18L36,65.49A9.75,9.75,0,1,0,24.77,75.7a8.85,8.85,0,0,0,1.45.11,9.77,9.77,0,0,0,9.13-6.36l4.55.68a30.88,30.88,0,0,0,6,21.1A31.82,31.82,0,0,0,50,95.78l-2.86,3.58a9.75,9.75,0,1,0,3.25,14.79h0a9.75,9.75,0,0,0-.12-12.3l2.86-3.58a30.92,30.92,0,0,0,13.15,5.22,32,32,0,0,0,4.67.35,31,31,0,0,0,9.14-1.4l1.8,4.3a9.75,9.75,0,1,0,14.47,11.92,9.76,9.76,0,0,0-10.78-13.47L83.8,101a31,31,0,0,0,17.44-21.67l4.54.68a9.76,9.76,0,0,0,8.29,9.08,10.36,10.36,0,0,0,1.46.11A9.75,9.75,0,0,0,117,69.8Zm-22.48-36a5.7,5.7,0,0,1,3.85-2.13,4.87,4.87,0,0,1,.66,0,5.76,5.76,0,1,1-4.51,2.17ZM52,36a5.75,5.75,0,1,1,7.65-7.38h0A5.75,5.75,0,0,1,52,36ZM31.9,66.91a5.77,5.77,0,0,1-6.54,4.84,5.76,5.76,0,0,1,.85-11.45,4.88,4.88,0,0,1,.85.07,5.75,5.75,0,0,1,4.84,6.54Zm15.34,44.75a5.75,5.75,0,1,1-.91-8.09A5.76,5.76,0,0,1,47.24,111.66Zm42.45-2.17a5.73,5.73,0,0,1,3.06,3.17h0A5.76,5.76,0,0,1,82,116.88a5.78,5.78,0,0,1,3.25-7.47,5.94,5.94,0,0,1,2.11-.4A5.7,5.7,0,0,1,89.69,109.49Zm8.24-38.06a27.12,27.12,0,0,1-27.05,28.4,26.31,26.31,0,0,1-4-.3,26.84,26.84,0,0,1-11.25-4.4l3.06-3.83,0,0a4.26,4.26,0,0,0-5.73.84l-.41.52a27.87,27.87,0,0,1-3.39-3.79,26.86,26.86,0,0,1-5.22-18.12l2.78.41a2,2,0,0,0,2.25-1.66v0c.1-.67.24-1.32.39-2l-4.83-.72A26.92,26.92,0,0,1,54.77,51a26.58,26.58,0,0,1,4.17-2.52l.2.52a4.25,4.25,0,0,0,5.21,2.55h0l-1.74-4.57a26.77,26.77,0,0,1,8.16-1.28,28,28,0,0,1,4.07.31A27,27,0,0,1,95.16,60.75,26,26,0,0,1,97.93,71.43Zm23.28,8.87a5.77,5.77,0,0,1-6.54,4.84,5.75,5.75,0,0,1-4.84-6.55,5.76,5.76,0,0,1,5.68-4.9,6.11,6.11,0,0,1,.86.06,5.75,5.75,0,0,1,4.84,6.55Z"/></svg>