<svg xmlns="http://www.w3.org/2000/svg" viewBox="0 0 538.58 22.68"><defs><style>.cls-1{fill:#fff;}</style></defs><title>200306 RAC Logo plain white</title><g id="Ebene_1" data-name="Ebene 1"><path class="cls-1" d="M170.65,12.5l3.12,6.22h-3.25l-2.66-5.55h-2.58v5.55h-3V4h6.16c3,0,4.88,1.32,4.88,4.14v.72A3.54,3.54,0,0,1,170.65,12.5Zm-5.37-1.69h3c1,0,2-.56,2-1.69V8.23c0-1.08-.84-1.69-2.06-1.69h-2.94Z"/><path class="cls-1" d="M186.33,3.85l4.83,14.87h-3.29l-1-3.38h-4.57l-1,3.38H178L183,3.85Zm0,9.13-1.71-5.75L182.88,13Z"/><path class="cls-1" d="M201.87,4c3.43,0,5.88,1.65,5.88,5.16v4.45c0,3.53-2.71,5.13-6.07,5.13h-5.21V4Zm2.89,5.4a2.66,2.66,0,0,0-2.89-2.84h-2.43v9.65h2.24c1.64,0,3.08-.81,3.08-2.82Z"/><path class="cls-1" d="M214.19,4h3V18.72h-3Z"/><path class="cls-1" d="M235.69,8.58v5.53c0,3.16-2.43,4.83-5.87,4.83h-.33c-3.49,0-5.89-1.65-5.89-4.83V8.58c0-3,2.51-4.81,5.87-4.81h.35C233.13,3.77,235.69,5.59,235.69,8.58Zm-3,.24c0-1.61-1.21-2.5-2.86-2.5h-.35c-1.67,0-2.84.91-2.84,2.47v5.12c0,1.69,1.11,2.49,2.86,2.49h.33c1.73,0,2.86-.82,2.86-2.49Z"/><path class="cls-1" d="M244.82,4V16.19h6.87v2.53h-9.88V4Z"/><path class="cls-1" d="M268.67,8.58v5.53c0,3.16-2.43,4.83-5.88,4.83h-.32c-3.49,0-5.9-1.65-5.9-4.83V8.58c0-3,2.52-4.81,5.88-4.81h.34C266.11,3.77,268.67,5.59,268.67,8.58Zm-3,.24c0-1.61-1.22-2.5-2.87-2.5h-.34c-1.67,0-2.84.91-2.84,2.47v5.12c0,1.69,1.1,2.49,2.86,2.49h.32c1.74,0,2.87-.82,2.87-2.49Z"/><path class="cls-1" d="M280.75,10.42h5.39v6.81a9.19,9.19,0,0,1-5.57,1.71c-3.42,0-6.07-1.67-6.07-4.83V8.62c0-3.14,2.73-4.85,6.12-4.85a9.28,9.28,0,0,1,5.05,1.4l-1.06,2.22a6.81,6.81,0,0,0-3.84-1.07c-1.8,0-3.23.87-3.23,2.52v5.07c0,1.69,1.32,2.49,3,2.49a5.62,5.62,0,0,0,2.54-.5V12.78h-2.36Z"/><path class="cls-1" d="M292.54,4h3V18.72h-3Z"/><path class="cls-1" d="M305.22,12.46v3.73h6.7v2.53h-9.71V4h9.24V6.54h-6.23V10h5v2.45Z"/><path class="cls-1" d="M333.53,4h1.72V18.7h-1.72V12.32h-8V18.7h-1.72V4h1.72v6.83h8Z"/><path class="cls-1" d="M342,11.93v5.23h7.19V18.7h-8.9V4h8.38V5.52H342v4.89h5.55v1.52Z"/><path class="cls-1" d="M353.7,4h1.71V18.7H353.7Z"/><path class="cls-1" d="M370.52,4h1.63V18.7h-1.76l-8-12.14V18.7h-1.62V4h1.8l7.95,12.12Z"/><path class="cls-1" d="M384.25,12.11l3.42,6.59h-1.89l-3.16-6.23h-3.77V18.7h-1.72V4h5.73c2.73,0,4.4,1.44,4.4,3.84v.82A3.41,3.41,0,0,1,384.25,12.11ZM378.85,11h4c1.43-.06,2.62-.8,2.62-2.3V7.83c0-1.38-1.06-2.31-2.79-2.31h-3.88Z"/><path class="cls-1" d="M391.7,4h1.72V18.7H391.7Z"/><path class="cls-1" d="M400,8.59v5.47c0,2.23,1.6,3.31,3.86,3.31a6.2,6.2,0,0,0,3.83-1.08l.76,1.23a6.9,6.9,0,0,1-4.7,1.39c-3.17,0-5.49-1.65-5.49-4.77V8.53c0-2.93,2.45-4.79,5.47-4.79a6.49,6.49,0,0,1,4.76,1.65l-.84,1.25a5.58,5.58,0,0,0-3.84-1.34C401.7,5.3,400,6.56,400,8.59Z"/><path class="cls-1" d="M422.08,4h1.71V18.7h-1.71V12.32h-8V18.7h-1.71V4h1.71v6.83h8Z"/><path class="cls-1" d="M438.25,14.92c0,2.52-2,4-4.86,4A6.59,6.59,0,0,1,428,16.46l1-1.08a5.29,5.29,0,0,0,4.35,2c1.89,0,3.19-.84,3.19-2.38s-.93-2.24-3.51-3c-2.82-.84-4.58-2-4.58-4.31,0-2.62,2.13-3.9,4.84-3.9a6.51,6.51,0,0,1,4.9,2l-.93,1.15a5.34,5.34,0,0,0-3.95-1.58c-1.82,0-3.17.8-3.17,2.32s1.26,2.25,3.71,3C436.8,11.48,438.25,12.6,438.25,14.92Z"/><path class="cls-1" d="M448.42,3.78l5.22,14.92h-1.86l-1.5-4.45h-5.63l-1.54,4.45h-1.89l5.36-14.92Zm1.45,9L447.49,6l-2.43,6.83Z"/><path class="cls-1" d="M459,4V17.16h7.61V18.7h-9.32V4Z"/><path class="cls-1" d="M471.66,4V17.16h7.61V18.7H470V4Z"/><path class="cls-1" d="M484.28,11.93v5.23h7.19V18.7h-8.9V4H491V5.52h-6.68v4.89h5.55v1.52Z"/><path class="cls-1" d="M497.37,11.93v5.23h7.2V18.7h-8.91V4h8.39V5.52h-6.68v4.89h5.55v1.52Z"/><path class="cls-1" d="M141.43,18.72h-3V4h3Z"/><path class="cls-1" d="M147.38,18.72h-3V4h3Z"/><path class="cls-1" d="M132.5,4V18.72h3V4Zm-6.37,14.73h3V4h-3Zm-6.95,0h3V4h-3Zm-7.15,0h3V4h-3Zm-7.8,0h3V4h-3Zm-8.35,0h3V4h-3Zm-9,0h3V4h-3Zm-9.45,0h3V4h-3Zm-10.22,0h3V4h-3Zm-11,0h3V4h-3Zm-11.7,0h3V4h-3ZM32,18.72h3V4H32Zm-13.36,0h3V4h-3Zm-14.38,0h3V4h-3Z"/><path class="cls-1" d="M153.34,18.72h-3V4h3Z"/><path class="cls-1" d="M522.42,18.72h-3V4h3Z"/><path class="cls-1" d="M528.38,18.72h-3V4h3Z"/><path class="cls-1" d="M516.47,18.72h-3V4h3Z"/><path class="cls-1" d="M534.33,18.72h-3V4h3Z"/></g></svg>